inDegrees=no
num_controls=7
num_derivatives=13
num_iterations=84
num_multipliers=7
num_parameters=0
num_slacks=7
num_states=26
objective=0.333947
objective_accelerations=0.037280
objective_balance=0.001240
objective_effort=0.027840
objective_height=0.265804
objective_ligament=0.001782
solver_duration=889.772759
status=Solve_Succeeded
success=true
DataType=double
version=3
OpenSimVersion=4.5
endheader
time	/jointset/ground_pelvis/pelvis_tilt/value	/jointset/ground_pelvis/pelvis_tx/value	/jointset/ground_pelvis/pelvis_ty/value	/jointset/hip_r/hip_flexion_r/value	/jointset/hip_r/hip_adduction_r/value	/jointset/hip_r/hip_rotation_r/value	/jointset/back/lumbar_extension/value	/jointset/patellofemoral_r/patellar_flexion_r/value	/jointset/knee_r/knee_flexion_r/value	/jointset/knee_r/knee_adduction_r/value	/jointset/knee_r/knee_rotation_r/value	/jointset/ankle_r/ankle_angle_r/value	/jointset/subtalar_r/subtalar_angle_r/value	/jointset/ground_pelvis/pelvis_tilt/speed	/jointset/ground_pelvis/pelvis_tx/speed	/jointset/ground_pelvis/pelvis_ty/speed	/jointset/hip_r/hip_flexion_r/speed	/jointset/hip_r/hip_adduction_r/speed	/jointset/hip_r/hip_rotation_r/speed	/jointset/back/lumbar_extension/speed	/jointset/patellofemoral_r/patellar_flexion_r/speed	/jointset/knee_r/knee_flexion_r/speed	/jointset/knee_r/knee_adduction_r/speed	/jointset/knee_r/knee_rotation_r/speed	/jointset/ankle_r/ankle_angle_r/speed	/jointset/subtalar_r/subtalar_angle_r/speed	/forceset/tau_hip_flexion_r	/forceset/tau_hip_adduction_r	/forceset/tau_hip_rotation_r	/forceset/tau_knee_flexion_r	/forceset/tau_ankle_angle_r	/forceset/tau_subtalar_angle_r	/forceset/tau_lumbar_extension	lambda_cid13_p0	lambda_cid14_p0	lambda_cid14_p1	lambda_cid14_p2	lambda_cid14_p3	lambda_cid14_p4	lambda_cid14_p5	/jointset/ground_pelvis/pelvis_tilt/accel	/jointset/ground_pelvis/pelvis_tx/accel	/jointset/ground_pelvis/pelvis_ty/accel	/jointset/hip_r/hip_flexion_r/accel	/jointset/hip_r/hip_adduction_r/accel	/jointset/hip_r/hip_rotation_r/accel	/jointset/back/lumbar_extension/accel	/jointset/patellofemoral_r/patellar_flexion_r/accel	/jointset/knee_r/knee_flexion_r/accel	/jointset/knee_r/knee_adduction_r/accel	/jointset/knee_r/knee_rotation_r/accel	/jointset/ankle_r/ankle_angle_r/accel	/jointset/subtalar_r/subtalar_angle_r/accel	gamma_cid13_p0	gamma_cid14_p0	gamma_cid14_p1	gamma_cid14_p2	gamma_cid14_p3	gamma_cid14_p4	gamma_cid14_p5
1	-0.2916954286303655	-0.008237754717182202	0.6273378945422751	1.490613856056674	-0.2460075495189454	0.0233716743803247	-0.7853978930148137	1.526579536597363	1.526579536597363	-0.05449725757661287	0.1745281264732009	0.4362261045521638	0.1585063352116776	0.07359425180683091	0.006440386157056266	0.01566573426797561	-0.105007857188099	-0.002137017959746226	-0.0002136432025428754	-9.051813480825488e-05	-0.01520084305193979	-0.01520084305193986	0.006639774736477977	7.335276288472438e-05	0.01576559552618068	0.003636097531300972	-0.3711180965925803	0.03846910701667611	0.0239959209673415	-0.4359440086761341	-0.05196083162112691	-0.009582757429730155	0.3780226826816928	-0.04051753711488463	-69.4713596081227	-19.65894224408042	7.363444343860015	9.099066266666362	-774.155413401971	55.36000287299998	1.482570188988473	0.1595379556624458	1.8813526321453	-5.755955751305242	0.01718426236075603	-1.001913632092628	-0.02152534199854971	-5.088844361706787	-5.088844361706788	0.5948917142247345	0.03316998643494831	-1.061455409476365	-0.4581894946855201	3.399325805683773e-10	-8.734226527947184e-10	-3.236387145794498e-09	6.186248237740428e-09	1.144595910907873e-09	-4.237606327003792e-09	-8.736317186213134e-09
1.01	-0.2908864507496616	-0.008165222308819249	0.6275883908122828	1.489277241657124	-0.2460278002992931	0.0233202892813847	-0.7853971812508234	1.526173561330017	1.526173561330018	-0.05440079787753317	0.1745297240143892	0.4363310385746077	0.1585204200032401	0.08816192507857404	0.008085433820055657	0.03442375098698126	-0.1622820387438223	-0.001903001416094058	-0.01004847965047848	0.000422383374473881	-0.06597100816013231	-0.06597100816013213	0.01264320776455839	0.0002136256533173083	0.005255463008424469	-0.0007837825841652615	-0.3718827992881509	0.03854217251464515	0.02400273668794312	-0.4357114343987808	-0.05231337483497742	-0.009534266932920008	0.3790740643159939	-0.04050976966216946	-69.6004480418347	-19.65272092329458	7.353583796175628	8.873461789520984	-774.6501420913226	55.35823860234495	1.437956122410463	0.1698892986877257	1.871559616082966	-5.708201792083712	0.02803372610921072	-0.9720330695428909	0.1161247622451521	-5.067622619509796	-5.067622619509768	0.6017250026458837	-0.0004205673337635288	-1.040654236977156	-0.4285819948307588	1.848244210938097e-09	-6.058236102459141e-10	-5.285042534186573e-10	1.515816244444396e-08	1.900335104219011e-09	-6.297593328683284e-09	1.1955546848365e-09
1.02	-0.2899329780910126	-0.008075659198412601	0.6280261739343413	1.487368874955144	-0.2460454062390577	0.0231710029342909	-0.7853856550987033	1.525260580404761	1.525260580404761	-0.05424457266707405	0.1745317489829515	0.4363318988590304	0.1584913670486761	0.1024932073960512	0.009846526565795027	0.05312310467819292	-0.2193583176746567	-0.001608049842770054	-0.01979389283437154	0.002072359477897791	-0.116601974633697	-0.1166019746336965	0.01859287701448886	0.0001588382365051742	-0.005049152071410105	-0.004991451693777038	-0.3726475019836988	0.03861523801261316	0.0240095524085902	-0.4354788601214231	-0.05266591804883163	-0.009485776436114621	0.3801254459503162	-0.04050752124099635	-69.73681660411575	-19.64467426587308	7.339891148422273	8.651185448352731	-775.2760557882295	55.36352242666501	1.435291998135365	0.1827469722103699	1.869620026586494	-5.716375226327423	0.02937126829514081	-0.984028979284122	0.2058895768296636	-5.061004634781234	-5.061004634781223	0.5841389585947269	-0.005842075014003809	-1.020351921892169	-0.4157472935146593	2.245993535764308e-09	-1.876543816415294e-10	1.755969039552528e-08	1.966516097539974e-08	-1.622689089700696e-10	-1.079479431284679e-08	2.270442737330069e-08
1.03	-0.2888372562310863	-0.007967958672294764	0.6286506627827846	1.484890687345784	-0.2460598690506107	0.02292476079407653	-0.7853523048750044	1.523841797532259	1.52384179753226	-0.05402883223857492	0.1745325757240961	0.4362304264685676	0.158420947003144	0.1166224581038607	0.01170764343696617	0.07176532912526642	-0.2762499337754455	-0.001285592920756731	-0.02943650340783008	0.004752917793699006	-0.167150381001379	-0.167150381001382	0.02457318852198561	6.977217363847249e-06	-0.01524244911494377	-0.009092589299370514	-0.3731041366728353	0.03870547507548244	0.02401983624802187	-0.4349863936956476	-0.05322464941861239	-0.009405327370720909	0.3808932316971718	-0.04052229001195312	-69.92312837862528	-19.6212862126783	7.312094515602429	8.606398524986464	-775.6229779569003	55.36392784291135	1.397436022388773	0.1899032978524518	1.860120180182356	-5.671164127974304	0.03352502872973885	-0.9516735143426223	0.3224238386481477	-5.051126336783686	-5.051126336784248	0.607676806417296	-0.0197808135407029	-1.018388460101949	-0.4072931246481002	2.632410592166599e-09	2.32051277432811e-10	3.580482700116899e-08	2.412659914231726e-08	-2.253631526307128e-09	-1.531686482744382e-08	4.433143272316713e-08
1.04	-0.2876011029810246	-0.00784122512680894	0.6294612931809814	1.481844461710217	-0.2460711388680312	0.02258263326454661	-0.7852874920922019	1.521917657056275	1.521917657056274	-0.05375274878310062	0.1745318993154261	0.4360271071347599	0.1583095163554415	0.130579485423074	0.0136531304393926	0.09035141462894199	-0.3329659229170205	-0.0009694510157332174	-0.03897097069992753	0.008364871297213621	-0.2176734953299404	-0.2176734953299471	0.03066148241309072	-0.0001417917288359093	-0.02541854073919781	-0.01319357212762164	-0.3735607713619469	0.038795712138363	0.0240301200875274	-0.4344939272698652	-0.05378338078839334	-0.00932487830530773	0.3816610174440511	-0.04054261085077292	-70.11681052973483	-19.59618320214153	7.280591398439169	8.562957251290644	-776.1027471363516	55.3718252785654	1.40084732041619	0.1996209984613582	1.858392237906898	-5.6812498344846	0.02810826489718815	-0.9624003230119118	0.3921686143723495	-5.055946226957141	-5.055946226957151	0.605735435316384	-0.005223660425681602	-1.016910838036372	-0.4157163380462324	4.279516694043503e-09	1.694327679279161e-09	5.433767191658044e-08	3.821987698345363e-08	-5.018563756594612e-09	-1.850291012315362e-08	7.307571793429953e-08
1.05	-0.2862261311001452	-0.007694595441468295	0.6304574495451659	1.478231963269818	-0.2460792965720857	0.02214546111200887	-0.7851820834679374	1.519488455652484	1.519488455652485	-0.05341548006955458	0.1745298509390806	0.4357220556559953	0.1581570321293561	0.1443956890668194	0.01568885591104867	0.1088649997455084	-0.3895024483516367	-0.0006641919229848942	-0.04847278542809829	0.01285603350650947	-0.2681586590221808	-0.2681586590221842	0.03678230865274845	-0.0002584537129908023	-0.03559437155374762	-0.01730613110458316	-0.3736293932289727	0.03887749055315099	0.02404276696764837	-0.4337810743855435	-0.05416683719228424	-0.009247364708267551	0.382130203729232	-0.04057138944657687	-70.22617609065551	-19.55473194946285	7.243215334619177	8.480317420884447	-776.1753094925477	55.35814453333786	1.369127582381196	0.2079541246064509	1.845608517934889	-5.635155765226425	0.03142779528815172	-0.9454717160880297	0.4984670168774157	-5.043583689721106	-5.043583689720649	0.6137674125675872	-0.01345717153420926	-1.018314149557364	-0.4094363860268498	5.96601932859148e-09	3.18918441683713e-09	7.287950771667214e-08	5.261414981440928e-08	-7.804545037286792e-09	-2.16472046307732e-08	1.020424181410964e-07
1.06	-0.2847135730436228	-0.007527127340793451	0.6316382951343964	1.474055039201614	-0.2460844630724517	0.02161299087852732	-0.785027587823044	1.516554646161899	1.516554646161901	-0.05301730085477406	0.1745269220020781	0.435315166879805	0.1579633401717985	0.1580967205516642	0.01782081350623215	0.1272892596382212	-0.4458510484773059	-0.0003712102772572185	-0.05803058689100698	0.01818227542257538	-0.3185951126889655	-0.3185951126889657	0.04284358266349399	-0.000317903862096516	-0.04578600022402132	-0.02143511842177552	-0.3736980150960093	0.0389592689679438	0.024055413847832	-0.4330682215012163	-0.0545502935961712	-0.009169851111217809	0.382599390014403	-0.04060587517902315	-70.34301650291403	-19.51152301857636	7.202056330827315	8.397733255422214	-776.3829287284698	55.35312989648911	1.37781288863617	0.2188674231667655	1.840527193136175	-5.643664772695169	0.02565277549306145	-0.9735976699595129	0.5591845557263896	-5.046204221866013	-5.046204221866017	0.593824989533936	0.006218706584177478	-1.020070409181284	-0.4190020060924582	6.930746449674629e-09	4.348832249698596e-09	8.392987549679666e-08	6.065003892812974e-08	-1.012441241487009e-08	-2.365426926217922e-08	1.188638334571303e-07
1.07	-0.2830648493792901	-0.00733785931836407	0.6330028168425516	1.469316065211849	-0.2460867409146401	0.02098500109454757	-0.784815349905991	1.513116847741429	1.513116847741429	-0.05255853070598655	0.1745236241216282	0.4348061711249366	0.1577282624953737	0.1715993328813039	0.0200487420832207	0.1455880107309447	-0.5018603928224012	-8.316212620803988e-05	-0.06754682959299639	0.02443811980817376	-0.3689436859888276	-0.3689436859888215	0.04892237273037479	-0.0003408458202717522	-0.05602658790305051	-0.02558193341314643	-0.3734070825013709	0.03902070404554692	0.02407547633238665	-0.4320571396458175	-0.05485393124574643	-0.009075568624969402	0.3828067549596557	-0.04065076914086919	-70.40295186567943	-19.44393553833664	7.148864158606946	8.305197273108204	-776.1531863642999	55.33673106087232	1.329184692145941	0.2271457239336789	1.82048323033245	-5.567064926465865	0.03057083375538483	-0.9375571933755084	0.6847061530853742	-5.026052656121829	-5.026052656120906	0.6166997011419898	-0.006406190764925882	-1.028071482460432	-0.4127255214777541	7.85708125621177e-09	5.490649821671949e-09	9.458176093543351e-08	6.834771614199724e-08	-1.241948649973483e-08	-2.560084294272281e-08	1.350392229811021e-07
